<?xml version="1.0" encoding="UTF-8"?>
<!DOCTYPE svg PUBLIC "-//W3C//DTD SVG 1.1//EN" "http://www.w3.org/Graphics/SVG/1.1/DTD/svg11.dtd">
<svg xmlns="http://www.w3.org/2000/svg" version="1.1" width="2000px" height="560px" style="shape-rendering:geometricPrecision; text-rendering:geometricPrecision; image-rendering:optimizeQuality; fill-rule:evenodd; clip-rule:evenodd" xmlns:xlink="http://www.w3.org/1999/xlink">
<g><path style="opacity:0.997" fill="#f3a83b" d="M 190.5,-0.5 C 206.167,-0.5 221.833,-0.5 237.5,-0.5C 278.751,8.54136 309.584,31.5414 330,68.5C 352.292,117.724 347.958,164.39 317,208.5C 308.091,219.411 297.924,228.911 286.5,237C 331.35,252.76 377.016,255.76 423.5,246C 447.168,239.983 467.001,227.816 483,209.5C 490.079,200.346 496.413,190.68 502,180.5C 503.798,178.028 506.132,176.361 509,175.5C 517.809,180.296 525.476,186.629 532,194.5C 554.474,222.887 567.807,255.22 572,291.5C 579.943,418.147 523.777,501.314 403.5,541C 372.283,550.199 340.616,556.366 308.5,559.5C 274.5,559.5 240.5,559.5 206.5,559.5C 155.079,557.418 109.412,540.252 69.5,508C 19.1381,461.087 1.63812,403.92 17,336.5C 32.476,283.36 64.976,244.527 114.5,220C 84.2227,209.036 56.5561,193.702 31.5,174C 19.5518,164.244 10.3851,152.411 4,138.5C -3.66933,102.499 10.8307,87.6658 47.5,94C 60.5171,96.1695 73.5171,98.3362 86.5,100.5C 96.8172,57.3847 122.151,26.5513 162.5,8C 171.766,4.52314 181.099,1.6898 190.5,-0.5 Z"/></g>
<g><path style="opacity:0.996" fill="#f3a83c" d="M 614.5,75.5 C 1075.5,75.5 1536.5,75.5 1997.5,75.5C 1997.5,211.5 1997.5,347.5 1997.5,483.5C 1536.5,483.5 1075.5,483.5 614.5,483.5C 614.5,347.5 614.5,211.5 614.5,75.5 Z"/></g>
<g><path style="opacity:1" fill="#fffdfc" d="M 1651.5,158.5 C 1656.43,158.197 1661.26,158.531 1666,159.5C 1664.77,180.543 1663.11,201.543 1661,222.5C 1671.44,213.134 1683.6,209.634 1697.5,212C 1706.48,214.982 1711.98,221.148 1714,230.5C 1715.41,236.442 1715.74,242.442 1715,248.5C 1711.48,280.184 1707.81,311.851 1704,343.5C 1703.5,344 1703,344.5 1702.5,345C 1693.92,345.816 1685.42,345.649 1677,344.5C 1679.7,317.846 1682.7,291.179 1686,264.5C 1686.67,257.5 1686.67,250.5 1686,243.5C 1685.29,241.919 1684.46,240.419 1683.5,239C 1676.46,235.296 1669.12,234.629 1661.5,237C 1659.67,237.5 1658.5,238.667 1658,240.5C 1654.32,274.892 1650.32,309.225 1646,343.5C 1645.5,344 1645,344.5 1644.5,345C 1636.17,345.5 1627.84,345.666 1619.5,345.5C 1626.15,283.824 1632.98,222.158 1640,160.5C 1643.94,159.862 1647.77,159.196 1651.5,158.5 Z"/></g>
<g><path style="opacity:1" fill="#fefdfc" d="M 933.5,167.5 C 951.468,166.443 957.635,174.443 952,191.5C 945.752,199.343 937.919,201.51 928.5,198C 918.034,185.907 919.701,175.74 933.5,167.5 Z"/></g>
<g><path style="opacity:1" fill="#fefefc" d="M 1467.5,167.5 C 1485.96,166.12 1492.13,174.12 1486,191.5C 1480.48,198.564 1473.31,201.064 1464.5,199C 1456.94,194.152 1454.44,187.318 1457,178.5C 1459.36,173.645 1462.86,169.979 1467.5,167.5 Z"/></g>
<g><path style="opacity:1" fill="#fefefd" d="M 1165.5,172.5 C 1177.17,172.333 1188.84,172.5 1200.5,173C 1213.43,174.038 1222.26,180.538 1227,192.5C 1231.35,215.591 1228.35,237.591 1218,258.5C 1211.87,266.324 1204.04,271.824 1194.5,275C 1185.02,277.702 1175.35,279.202 1165.5,279.5C 1163.62,300.92 1161.12,322.253 1158,343.5C 1148.96,345.196 1139.79,345.863 1130.5,345.5C 1136.7,290.182 1142.87,234.849 1149,179.5C 1149.16,177.324 1150,175.491 1151.5,174C 1156.35,173.826 1161.02,173.326 1165.5,172.5 Z"/></g>
<g><path style="opacity:1" fill="#fffefc" d="M 717.5,173.5 C 725.84,173.334 734.173,173.5 742.5,174C 743.116,175.4 743.449,176.9 743.5,178.5C 738.498,224.51 733.498,270.51 728.5,316.5C 743.143,315.168 757.809,314.668 772.5,315C 773.097,316.062 773.43,317.228 773.5,318.5C 772.088,326.128 770.921,333.794 770,341.5C 769.5,342 769,342.5 768.5,343C 744.844,344.19 721.177,345.023 697.5,345.5C 703.446,289.152 709.613,232.819 716,176.5C 716.513,175.473 717.013,174.473 717.5,173.5 Z"/></g>
<g><path style="opacity:1" fill="#fffdfc" d="M 1381.5,185.5 C 1389.56,185.198 1397.56,185.531 1405.5,186.5C 1405.83,187.167 1406.17,187.833 1406.5,188.5C 1404.52,196.045 1403.52,203.711 1403.5,211.5C 1412.5,211.5 1421.5,211.5 1430.5,211.5C 1430.32,219.261 1428.99,226.761 1426.5,234C 1417.59,234.181 1408.76,234.681 1400,235.5C 1397.67,256.167 1395.33,276.833 1393,297.5C 1392.17,304.234 1392.5,310.901 1394,317.5C 1395.17,319.333 1396.67,320.833 1398.5,322C 1406.89,321.89 1415.22,321.057 1423.5,319.5C 1422.45,327.133 1421.62,334.8 1421,342.5C 1418.44,344.189 1415.61,345.356 1412.5,346C 1404.5,346.667 1396.5,346.667 1388.5,346C 1371.35,341.585 1363.69,330.419 1365.5,312.5C 1367.4,286.756 1370.07,261.09 1373.5,235.5C 1369.17,235.5 1364.83,235.5 1360.5,235.5C 1360.48,227.962 1361.65,220.628 1364,213.5C 1368.07,212.536 1372.23,212.203 1376.5,212.5C 1377.59,204.875 1378.42,197.209 1379,189.5C 1379.66,188.016 1380.5,186.683 1381.5,185.5 Z"/></g>
<g><path style="opacity:1" fill="#f3a83e" d="M 1174.5,197.5 C 1182.74,196.278 1190.24,197.944 1197,202.5C 1198,204.167 1199,205.833 1200,207.5C 1201.32,218.738 1200.32,229.738 1197,240.5C 1194.23,246.94 1189.39,250.774 1182.5,252C 1177.9,253.122 1173.23,253.622 1168.5,253.5C 1170.87,234.876 1172.87,216.209 1174.5,197.5 Z"/></g>
<g><path style="opacity:1" fill="#fffefc" d="M 835.5,211.5 C 843.507,211.334 851.507,211.5 859.5,212C 872.563,214.73 880.73,222.563 884,235.5C 885.769,242.554 886.603,249.72 886.5,257C 885.818,272.652 883.985,288.152 881,303.5C 874.307,338.766 853.473,352.266 818.5,344C 807.51,338.537 801.01,329.704 799,317.5C 797.946,310.886 797.446,304.22 797.5,297.5C 797.971,277.395 801.138,257.729 807,238.5C 812.201,224.795 821.701,215.795 835.5,211.5 Z"/></g>
<g><path style="opacity:1" fill="#fffefd" d="M 1004.5,211.5 C 1019.99,208.16 1030.49,213.827 1036,228.5C 1037.14,223.917 1037.81,219.251 1038,214.5C 1038.5,214 1039,213.5 1039.5,213C 1047.83,212.5 1056.16,212.334 1064.5,212.5C 1060.9,256.907 1055.9,301.074 1049.5,345C 1040.84,345.5 1032.17,345.666 1023.5,345.5C 1023.9,340.102 1024.4,334.769 1025,329.5C 1015.4,346.368 1001.9,350.535 984.5,342C 977.895,336.294 973.728,329.127 972,320.5C 967.56,291.336 970.56,263.003 981,235.5C 985.079,223.59 992.912,215.59 1004.5,211.5 Z"/></g>
<g><path style="opacity:1" fill="#fffefc" d="M 1278.5,211.5 C 1294.98,207.986 1306.15,213.986 1312,229.5C 1312.28,223.872 1313.11,218.372 1314.5,213C 1323.16,212.5 1331.83,212.334 1340.5,212.5C 1335.85,256.179 1331.02,299.845 1326,343.5C 1325.5,344 1325,344.5 1324.5,345C 1316.17,345.667 1307.83,345.667 1299.5,345C 1298.94,344.275 1298.61,343.442 1298.5,342.5C 1302.42,329.319 1300.92,327.986 1294,338.5C 1284.21,347.221 1273.38,348.721 1261.5,343C 1254.11,337.736 1249.61,330.569 1248,321.5C 1242.84,292.413 1245.51,264.08 1256,236.5C 1260.24,225.103 1267.74,216.77 1278.5,211.5 Z"/></g>
<g><path style="opacity:1" fill="#fefefc" d="M 1563.5,211.5 C 1586.67,209.328 1598,219.994 1597.5,243.5C 1594.12,276.879 1590.28,310.212 1586,343.5C 1585.5,344 1585,344.5 1584.5,345C 1576.17,345.5 1567.84,345.666 1559.5,345.5C 1562.61,314.16 1565.95,282.827 1569.5,251.5C 1570.31,243.612 1566.98,238.445 1559.5,236C 1553.03,234.884 1546.86,235.718 1541,238.5C 1537.09,273.932 1532.76,309.265 1528,344.5C 1519.58,345.649 1511.08,345.816 1502.5,345C 1501.88,343.6 1501.55,342.1 1501.5,340.5C 1506.81,298.56 1511.64,256.56 1516,214.5C 1516.5,214 1517,213.5 1517.5,213C 1525.83,212.333 1534.17,212.333 1542.5,213C 1542.66,216.72 1542.82,220.554 1543,224.5C 1549,218.755 1555.83,214.422 1563.5,211.5 Z"/></g>
<g><path style="opacity:1" fill="#fefefd" d="M 1779.5,211.5 C 1813.39,207.39 1829.72,222.39 1828.5,256.5C 1828.43,274.426 1826.27,292.093 1822,309.5C 1813.96,339.782 1794.46,351.616 1763.5,345C 1750.86,339.676 1743.36,330.176 1741,316.5C 1738.38,289.521 1741.38,263.188 1750,237.5C 1755.74,223.916 1765.57,215.249 1779.5,211.5 Z"/></g>
<g><path style="opacity:1" fill="#fefdfc" d="M 1888.5,210.5 C 1896.52,210.566 1904.52,211.066 1912.5,212C 1913.89,212.956 1914.56,214.289 1914.5,216C 1913.38,222.797 1912.55,229.63 1912,236.5C 1905.25,237.314 1898.41,237.814 1891.5,238C 1887.86,240.139 1886.19,243.306 1886.5,247.5C 1887.28,253.339 1888.78,259.006 1891,264.5C 1898.08,276.652 1904.08,289.318 1909,302.5C 1910.84,313.959 1908.84,324.626 1903,334.5C 1896.19,341.986 1887.69,345.819 1877.5,346C 1870.17,346.667 1862.83,346.667 1855.5,346C 1852.95,345.239 1850.45,344.406 1848,343.5C 1847.97,335.401 1848.97,327.401 1851,319.5C 1851.56,318.978 1852.23,318.645 1853,318.5C 1860.03,321.526 1867.19,322.026 1874.5,320C 1879.26,317.654 1881.26,313.821 1880.5,308.5C 1880.49,305.408 1879.99,302.408 1879,299.5C 1870.95,285.079 1864.29,270.079 1859,254.5C 1854.95,230.112 1864.78,215.446 1888.5,210.5 Z"/></g>
<g><path style="opacity:1" fill="#fefefc" d="M 923.5,212.5 C 931.833,212.5 940.167,212.5 948.5,212.5C 943.997,257.527 939.164,302.527 934,347.5C 933.035,361.379 928.702,374.046 921,385.5C 909.776,396.465 896.276,401.298 880.5,400C 879.884,398.6 879.551,397.1 879.5,395.5C 880.474,388.851 881.307,382.184 882,375.5C 887.465,373.798 892.965,371.964 898.5,370C 902.661,366.846 905.161,362.679 906,357.5C 911.11,311.511 916.11,265.511 921,219.5C 921.153,216.849 921.987,214.516 923.5,212.5 Z"/></g>
<g><path style="opacity:1" fill="#fefefc" d="M 1457.5,212.5 C 1465.83,212.5 1474.17,212.5 1482.5,212.5C 1478.42,256.572 1473.58,300.572 1468,344.5C 1459.25,345.484 1450.42,345.817 1441.5,345.5C 1445.96,304.17 1450.46,262.836 1455,221.5C 1455.06,218.189 1455.89,215.189 1457.5,212.5 Z"/></g>
<g><path style="opacity:1" fill="#f3a93e" d="M 842.5,233.5 C 850.976,232.815 856.476,236.482 859,244.5C 859.628,268.299 856.628,291.633 850,314.5C 846.007,323.162 839.507,325.996 830.5,323C 826.473,320.281 824.306,316.448 824,311.5C 823.625,290.543 825.958,269.876 831,249.5C 832.828,242.537 836.662,237.204 842.5,233.5 Z"/></g>
<g><path style="opacity:1" fill="#f3a93e" d="M 1785.5,233.5 C 1791.85,232.884 1796.68,235.218 1800,240.5C 1802.68,266.051 1800.01,291.051 1792,315.5C 1787.25,324.306 1780.42,326.472 1771.5,322C 1769.26,319.97 1767.76,317.47 1767,314.5C 1766.42,293.263 1768.42,272.263 1773,251.5C 1774.5,243.465 1778.66,237.465 1785.5,233.5 Z"/></g>
<g><path style="opacity:1" fill="#f3a83e" d="M 1014.5,236.5 C 1024.86,236.018 1030.36,241.018 1031,251.5C 1032.32,271.92 1029.99,291.92 1024,311.5C 1018.26,322.899 1010.93,324.233 1002,315.5C 1000.8,312.911 999.803,310.244 999,307.5C 997.16,288.149 998.826,269.149 1004,250.5C 1005.86,244.492 1009.36,239.825 1014.5,236.5 Z"/></g>
<g><path style="opacity:1" fill="#f3a83e" d="M 1290.5,236.5 C 1297.49,236.076 1302.32,239.076 1305,245.5C 1308.34,268.284 1306.34,290.617 1299,312.5C 1295.02,321.079 1288.85,323.246 1280.5,319C 1278.38,317.269 1276.88,315.102 1276,312.5C 1272.4,293.383 1273.07,274.383 1278,255.5C 1279.72,247.34 1283.89,241.007 1290.5,236.5 Z"/></g>
</svg>
